<?xml version="1.0" standalone="no"?><!DOCTYPE svg PUBLIC "-//W3C//DTD SVG 1.1//EN" "http://www.w3.org/Graphics/SVG/1.1/DTD/svg11.dtd"><svg t="1698665994772" class="icon" viewBox="0 0 1024 1024" version="1.1" xmlns="http://www.w3.org/2000/svg" p-id="4444" xmlns:xlink="http://www.w3.org/1999/xlink" width="200" height="200"><path d="M548.12 156.4c-21.83-11.21-48.07-9.15-69.6 6.26-34.53 27.03-68.32 54.05-102.11 81.08-30.87 24.7-61.74 49.39-93.19 74.09H129.33c-34.31 0-62.23 27.92-62.23 62.23V644.1c0 34.32 27.92 62.24 62.23 62.24h153.9c31.52 24.75 62.45 49.51 93.4 74.26 33.71 26.97 67.43 53.93 103.01 81.75 11.69 8.34 25.28 12.59 38.86 12.59 10.15 0 20.28-2.37 29.62-7.18 20.98-10.8 33.5-31.59 33.5-55.64V212.04c0-24.05-12.53-44.84-33.5-55.64z m-30.99 653.47c-33.88-26.54-67.05-53.07-100.23-79.61-33.98-27.18-67.95-54.35-102.68-81.53l-8.75-6.85h-173.9V382.3h173.9l8.75-6.85c34.66-27.12 68.56-54.24 102.46-81.36 33.11-26.48 66.21-52.97 100.47-79.13l-0.02 594.91zM816.43 512.08c45.01-51.01 87.01-105.01 132.01-156.02 12.01-15 12.01-36-3-48-15-12.01-36.01-12.01-48.01 3-42 48.01-81.01 99.01-123.01 147.02-42.01-48.01-81.01-99.01-123.01-147.02-12-12-33-15-48.01-3-12 12-15 33-3 48 45 51.01 87.01 105.01 132.01 156.02-45 51.01-87.01 105.02-132.01 156.03-12.01 15-12.01 36 3 48 15 12 36.01 12 48.01-3l123.01-147.02c42.01 48.01 81.01 99.01 123.01 147.02 12 12 33 15 48.01 3 12-12 15-33 3-48-45.01-51.01-87.01-105.02-132.01-156.03z" fill="#666666" p-id="4445"></path></svg>