<?xml version="1.0" standalone="no"?><!DOCTYPE svg PUBLIC "-//W3C//DTD SVG 1.1//EN" "http://www.w3.org/Graphics/SVG/1.1/DTD/svg11.dtd"><svg t="1698155682463" class="icon" viewBox="0 0 1024 1024" version="1.1" xmlns="http://www.w3.org/2000/svg" p-id="3843" xmlns:xlink="http://www.w3.org/1999/xlink" width="200" height="200"><path d="M910.827 133v184c0 11.046-8.954 20-20 20s-20-8.954-20-20V181.284L641.142 410.969c-7.81 7.81-20.474 7.81-28.284 0-7.81-7.81-7.81-20.474 0-28.284l229.686-229.687-135.717 0.002c-11.046 0-20-8.954-20-20s8.954-20 20-20h184c11.046 0 20 8.954 20 20zM113 133v184c0 11.046 8.954 20 20 20s20-8.954 20-20V181.284l229.685 229.685c7.81 7.81 20.474 7.81 28.284 0 7.81-7.81 7.81-20.474 0-28.284L181.283 152.998 317 153c11.046 0 20-8.954 20-20s-8.954-20-20-20H133c-11.046 0-20 8.954-20 20z m797.827 758.827v-184c0-11.046-8.954-20-20-20s-20 8.954-20 20v135.716L641.142 613.858c-7.81-7.81-20.474-7.81-28.284 0-7.81 7.81-7.81 20.474 0 28.284L842.544 871.83l-135.717-0.002c-11.046 0-20 8.954-20 20s8.954 20 20 20h184c11.046 0 20-8.954 20-20z m-797.827 0v-184c0-11.046 8.954-20 20-20s20 8.954 20 20v135.716l229.685-229.685c7.81-7.81 20.474-7.81 28.284 0 7.81 7.81 7.81 20.474 0 28.284L181.283 871.83 317 871.827c11.046 0 20 8.954 20 20s-8.954 20-20 20H133c-11.046 0-20-8.954-20-20z" fill="#222222" p-id="3844"></path></svg>